<?xml version="1.0" encoding="UTF-8"?>
<svg id="Layer_1" data-name="Layer 1" xmlns="http://www.w3.org/2000/svg" viewBox="0 0 946.15 946.16">
  <defs>
    <style>
      .cls-1 {
        fill: #fff;
      }
    </style>
  </defs>
  <path class="cls-1" d="M478.74,203.87c.1-.52.18-1.08.27-1.62.09-.53.18-1.05.27-1.61,1.14-7.55,1.83-17.22,1.83-27.76,0-24.15-3.59-43.72-8.03-43.72s-8.03,19.57-8.03,43.72c0,10.54.68,20.2,1.83,27.75.08.56.18,1.08.27,1.62.09.54.18,1.11.27,1.63,1.45,7.86,3.45,12.72,5.66,12.72s4.21-4.87,5.66-12.73Z"/>
  <path class="cls-1" d="M467.42,742.29c-.09.52-.18,1.08-.27,1.62-.09.53-.18,1.05-.27,1.61-1.14,7.55-1.83,17.22-1.83,27.76,0,24.15,3.59,43.72,8.03,43.72s8.03-19.57,8.03-43.72c0-10.54-.68-20.21-1.83-27.76-.09-.56-.18-1.08-.27-1.62-.09-.54-.18-1.11-.27-1.63-1.45-7.86-3.45-12.72-5.66-12.72s-4.21,4.87-5.66,12.73Z"/>
  <path class="cls-1" d="M945.7,528.6c3.24-28.69-11.95-50.71-14.52-54.19,2.49-3.74,17.77-28.08,14.52-56.84-1.9-16.79-11.2-34.19-28.1-47.69.03-.06.06-.11.09-.17,10.83-19.72,19.53-80.56,19.89-83.14l.12-.82-.6-.57c-.37-.36-9.53-9.12-34.43-27.3-14.4-10.51-27.37-19.05-42.7-22.74,3.46-22.91-2.35-43.08-13.43-56.99-17.99-22.58-44.3-27.41-48.58-28.06-.89-4.41-7.29-32.42-29.94-50.46-13.21-10.53-32.09-16.26-53.59-13.85-.02-.06-.04-.12-.06-.18-6.29-21.6-43.16-70.78-44.73-72.86l-.5-.66h-.83c-.52.02-13.18.31-43.65,5.06-17.62,2.75-32.83,5.89-46.27,14.12-13.76-18.64-32.13-28.8-49.8-30.81-28.62-3.26-50.71,11.95-54.19,14.52-3.74-2.49-28.06-17.78-56.84-14.52-16.79,1.9-34.19,11.2-47.69,28.1-.06-.03-.11-.06-.17-.09-19.73-10.83-80.57-19.52-83.15-19.89l-.82-.12-.57.6c-.36.37-9.12,9.52-27.3,34.43-10.51,14.4-19.04,27.38-22.73,42.71-22.91-3.46-43.08,2.35-56.99,13.43-22.58,17.99-27.41,44.3-28.06,48.58-4.4.89-32.42,7.29-50.45,29.93-10.53,13.21-16.27,32.09-13.86,53.59-.06.02-.12.04-.18.06-21.6,6.29-70.78,43.16-72.86,44.73l-.66.5v.83c.02.52.31,13.18,5.07,43.65,2.75,17.62,5.89,32.83,14.12,46.27-18.64,13.76-28.8,32.13-30.81,49.8-3.24,28.69,11.95,50.71,14.52,54.19-2.49,3.74-17.77,28.08-14.52,56.84,1.9,16.79,11.2,34.19,28.1,47.69-.03.06-.06.11-.09.17-10.83,19.72-19.52,80.57-19.89,83.15l-.12.82.6.57c.37.36,9.52,9.11,34.43,27.29,14.4,10.51,27.38,19.04,42.71,22.73-3.46,22.92,2.35,43.09,13.43,57,17.99,22.58,44.3,27.41,48.58,28.06.89,4.4,7.29,32.42,29.93,50.45,11.21,8.94,26.49,14.48,44,14.48,3.13,0,6.34-.2,9.61-.57.01.04.03.08.04.12,6.29,21.6,43.16,70.78,44.73,72.86l.5.66h.83c.52-.02,13.18-.31,43.65-5.06,17.61-2.75,32.82-5.89,46.27-14.12,13.76,18.64,32.13,28.8,49.8,30.8,2.74.31,5.43.45,8.05.45,24.68,0,42.99-12.64,46.14-14.97,3.74,2.49,28.09,17.8,56.84,14.52,16.79-1.9,34.2-11.2,47.69-28.1.06.03.11.06.17.09,19.72,10.83,80.56,19.53,83.14,19.89l.82.12.57-.6c.36-.37,9.12-9.53,27.3-34.43,10.5-14.39,19.03-27.35,22.72-42.66,4.45.67,8.79,1,13,1,17.51,0,32.79-5.55,44-14.48,22.59-17.99,27.41-44.3,28.06-48.58,4.41-.89,32.42-7.3,50.46-29.94,10.52-13.21,16.26-32.09,13.85-53.59.06-.02.12-.04.18-.06,21.6-6.29,70.78-43.17,72.86-44.73l.66-.5v-.83c-.02-.52-.31-13.18-5.07-43.65-2.75-17.61-5.89-32.82-14.12-46.27,18.64-13.76,28.8-32.13,30.8-49.8ZM845.26,767c-19.13,24-49.74,29.41-50.05,29.46l-.6.1-.07.61c-.03.29-3.54,28.97-27.54,48.09-13.57,10.81-33.25,16.45-55.64,13.1-.55-.08-1.08-.11-1.64-.21-.54-.09-1.09-.24-1.63-.34-14.15-2.65-29.28-8.95-44.6-19.79-.45-.32-.9-.6-1.35-.93-.45-.33-.9-.6-1.35-.93-2.79-2.07-5.59-4.3-8.39-6.69-11.71-9.99-22.04-23.65-30.93-38.37-.28-.46-.56-.91-.83-1.37-.15-.26-.31-.52-.46-.78-.13-.21-.25-.43-.37-.65-9.9-16.88-17.93-34.92-23.93-50.33-6.32-16.21-10.41-29.45-12.14-35.37,7.2-3.48,14.21-7.3,21.01-11.42.46-.28.92-.58,1.38-.86.46-.28.91-.59,1.37-.88.96-.6,1.91-1.22,2.86-1.84.03,2.17.14,4.37.38,6.6.13,1.23.35,2.47.55,3.71.2,1.29.38,2.57.65,3.87,3.91,19.14,14.95,39.6,32.34,56.99,1.91,1.91,3.86,3.72,5.83,5.47.42.37.84.72,1.26,1.09.4.35.82.67,1.22,1.01.62.53,1.25,1.04,1.88,1.55,1.15.94,2.31,1.88,3.48,2.77,1.04.79,2.09,1.53,3.15,2.28,9.4,6.69,19.21,11.77,28.92,15.08.79.27,1.58.5,2.36.74.78.24,1.55.46,2.32.68,19.04,5.41,37.3,4.05,50.58-5.01-17.95,4.41-40.86-.76-62.72-14.14-1.11-.68-2.21-1.35-3.31-2.07-1.2-.78-2.38-1.62-3.57-2.45-5.08-3.56-10.07-7.55-14.88-11.99-.4-.37-.79-.75-1.19-1.13-.41-.39-.82-.78-1.23-1.17-.63-.61-1.28-1.19-1.91-1.81-19.11-19.11-31.09-41.44-34.93-61.75-.23-1.22-.46-2.45-.63-3.65-.16-1.1-.25-2.18-.36-3.26,0-.1-.02-.19-.02-.28,4.24-3.02,8.4-6.15,12.45-9.42,1.72,18.31,12.58,40.02,31.03,58.46.56.56,1.13,1.05,1.7,1.6.45.44.91.86,1.37,1.29.45.42.9.86,1.35,1.27,29.76,27.13,66.32,35.39,83.63,18.09,18.17-18.17,8.21-57.59-22.25-88.05-.25-.25-.51-.47-.76-.72-2.78-2.74-5.65-5.28-8.56-7.68-.04-.04-.09-.07-.13-.11-.66-.55-1.32-1.13-1.99-1.65-.75-.59-1.5-1.12-2.25-1.69-4.89-3.68-9.87-6.86-14.87-9.53-3.11-1.66-6.21-3.12-9.29-4.38-7.11-2.89-14.08-4.67-20.62-5.28,1.56-1.93,3.09-3.87,4.59-5.84.33-.43.68-.84,1-1.28.37-.49.73-1,1.09-1.49.94-1.26,1.82-2.56,2.73-3.84,19.47,1.83,41.5,11.75,61.11,28.71.5.44,1.02.83,1.52,1.28.46.41.9.86,1.35,1.27,1.67,1.52,3.33,3.06,4.96,4.68,10.22,10.22,18.38,21.37,24.38,32.63.51.96,1,1.92,1.48,2.88.46.91.9,1.83,1.33,2.74,8.39,17.97,11.17,35.91,7.58,50.55,7.66-11.23,9.83-26.02,7.06-41.84-.12-.7-.3-1.41-.44-2.11-.15-.72-.28-1.44-.45-2.16-2.51-10.98-7.37-22.31-14.38-33.23-.58-.9-1.12-1.81-1.73-2.7-.67-.99-1.42-1.95-2.12-2.93-3.67-5.08-7.79-10.02-12.4-14.75-.39-.4-.75-.82-1.14-1.22-.02-.02-.03-.04-.05-.06-.39-.39-.8-.73-1.2-1.12-19.88-19.4-43.55-30.66-64.66-32.52-1.08-.1-2.14-.12-3.21-.16-.7-.03-1.41-.1-2.1-.11.19-.3.38-.6.58-.9.29-.46.59-.91.88-1.37,4.93-7.85,9.48-15.96,13.54-24.36,4.67,1.37,13.89,4.2,25.55,8.44,4.4,1.6,9.13,3.4,14.09,5.39,13.17,5.29,27.91,11.96,42.07,19.94.68.38,1.35.78,2.02,1.16.47.27.95.54,1.42.82.47.27.94.54,1.41.81,2.25,1.33,4.46,2.71,6.66,4.11,12.89,8.21,24.73,17.55,33.64,28,2.52,2.96,4.84,5.91,7.02,8.87.33.45.6.89.92,1.34.32.45.62.9.93,1.35,11.55,16.46,17.86,32.68,20.06,47.69.08.54.13,1.08.2,1.62.07.55.15,1.11.21,1.66,2.27,20.91-3.32,39.24-13.55,52.08ZM578.32,915c9.09-12.29,16.12-28.32,19.63-48.17,17.09,5.26,37.28,9.22,38.51,9.45l.92.18.61-.7c.24-.27,6.03-6.9,17.85-25.03,2.5-3.83,4.8-7.52,6.85-11.22,15.46,10.91,30.75,17.25,45.06,19.93-3.61,14.78-11.89,27.35-22.08,41.3-15.48,21.22-24.24,31.08-26.45,33.5-7.48-1.09-62.62-9.44-80.9-19.25ZM472.2,929.53l-.5-.35-.48.38c-.23.17-23.06,18.01-53.48,14.53-17.23-1.95-35.15-11.88-48.61-30.08-.33-.45-.69-.85-1.01-1.3-.32-.44-.6-.94-.91-1.39-8.13-11.88-14.38-27.04-17.54-45.54-.09-.54-.21-1.06-.3-1.61-.09-.55-.21-1.05-.3-1.61-.51-3.44-.92-7-1.21-10.67-1.22-15.46,1.17-32.56,5.35-49.37.13-.52.25-1.04.38-1.55.04-.17.09-.34.13-.51.09-.36.2-.73.29-1.09,4.93-18.81,11.96-37.11,18.57-52.15,7-15.95,13.47-28.2,16.43-33.6,7.49,2.63,15.13,4.92,22.92,6.85.53.13,1.06.24,1.59.37.53.13,1.06.24,1.58.37,1.08.25,2.16.51,3.25.75-1.48,1.53-2.93,3.13-4.32,4.84-.77.96-1.5,2-2.24,3.01-.77,1.05-1.55,2.09-2.28,3.19-10.77,16.3-17.43,38.57-17.43,63.17,0,1.57.09,3.11.15,4.66.02.56.03,1.13.05,1.69.02.54.02,1.09.05,1.62.11,1.92.31,3.8.51,5.69.15,1.48.3,2.96.5,4.41.18,1.29.4,2.56.61,3.83,1.92,11.38,5.26,21.92,9.79,31.12.37.75.76,1.46,1.14,2.19.38.72.77,1.42,1.17,2.12,9.64,17.29,23.51,29.23,39.3,32.22-15.81-9.58-28.35-29.42-34.35-54.34-.3-1.26-.61-2.53-.88-3.81-.29-1.4-.54-2.82-.79-4.25-1.32-7.49-2.07-15.34-2.15-23.45,0-.51-.04-1.01-.04-1.52,0-.05,0-.09,0-.14,0-.6.04-1.19.05-1.79.34-26.24,7.54-49.77,18.91-66.43.7-1.03,1.4-2.06,2.13-3.03.67-.89,1.36-1.71,2.05-2.55.03-.04.06-.08.1-.12,5.1.86,10.24,1.62,15.45,2.17-11.01,13.37-18.36,34.58-19.16,58.77-.02.68-.05,1.36-.06,2.05-.01.69-.06,1.36-.06,2.05,0,.09,0,.18,0,.28,0,43.08,20.83,78,46.53,78s46.52-34.92,46.52-78c0-.35-.03-.68-.03-1.03-.03-3.91-.26-7.74-.62-11.49-.32-3.34-.74-6.62-1.3-9.8-.22-1.24-.48-2.44-.74-3.65-.28-1.34-.55-2.69-.87-3.99-.45-1.83-.98-3.6-1.51-5.36-1.02-3.37-2.18-6.59-3.47-9.66-2.96-7.01-6.59-13.14-10.74-18.18,2.44-.26,4.86-.6,7.28-.93.54-.07,1.08-.13,1.61-.21.55-.08,1.12-.13,1.67-.21,1.64-.24,3.25-.55,4.88-.82,11.46,13.89,19.64,34.13,22.3,57.44.08.68.11,1.37.18,2.06.07.67.12,1.36.18,2.03.35,4.11.59,8.27.59,12.53,0,14.47-2.11,28.14-5.84,40.35-.31,1.03-.65,2.04-.98,3.04-.32.97-.66,1.94-1,2.89-6.78,18.64-17.49,33.28-30.38,41.09,13.36-2.53,25.35-11.45,34.57-24.6.41-.58.78-1.2,1.18-1.8.4-.6.8-1.19,1.19-1.81,5.99-9.54,10.59-21,13.35-33.69.23-1.04.48-2.05.68-3.1.23-1.18.38-2.41.58-3.61,1.08-6.73,1.72-13.73,1.72-20.96,0-.84-.07-1.65-.08-2.48-.01-.58-.04-1.14-.06-1.72-.02-.6-.03-1.19-.06-1.78-1.15-26-9.68-48.99-22.58-64.38-.7-.83-1.43-1.6-2.15-2.38-.45-.48-.87-1-1.33-1.47.33-.07.65-.15.98-.23.53-.12,1.06-.24,1.58-.37,9.12-2.1,18.06-4.68,26.78-7.74,2.33,4.26,6.85,12.79,12.1,24.05,1.97,4.22,4.03,8.81,6.12,13.71,5.58,13.07,11.3,28.23,15.67,43.9.05.17.09.35.14.52.15.53.28,1.07.43,1.6.14.53.29,1.06.43,1.6.82,3.1,1.57,6.2,2.26,9.31,3.31,14.92,5.08,29.9,3.99,43.59-.31,3.87-.76,7.61-1.31,11.23-.08.55-.21,1.06-.3,1.6-.09.55-.2,1.08-.3,1.62-3.47,19.8-10.48,35.73-19.54,47.9-.33.44-.67.86-1,1.29-.34.44-.68.89-1.02,1.32-13.18,16.39-30.1,25.4-46.41,27.25-30.54,3.48-55.96-14.37-56.21-14.56ZM278.61,930.79c-4.51-6.06-37.55-50.88-43.57-70.77,15.12-2.26,31.43-8.62,47.95-20.17,8.36,15.79,19.81,32.83,20.51,33.86l.52.77.93-.06c.36-.02,9.14-.61,30.32-5.08,4.49-.95,8.75-1.93,12.83-3.11,3.22,18.64,9.53,33.94,17.75,45.95-13.02,7.91-27.77,10.95-44.85,13.62-25.96,4.05-39.12,4.84-42.39,4.98ZM179.15,845.26c-24-19.13-29.4-49.74-29.46-50.04l-.1-.6-.61-.07c-.28-.03-28.98-3.56-48.09-27.54-10.81-13.57-16.46-33.26-13.1-55.66.08-.54.11-1.07.2-1.62.09-.54.24-1.09.34-1.63,2.65-14.15,8.96-29.29,19.8-44.62.32-.45.6-.89.92-1.33.33-.45.6-.9.93-1.35,2.07-2.8,4.3-5.6,6.69-8.4,10.09-11.83,23.93-22.25,38.81-31.2.47-.28.93-.57,1.4-.85.1-.06.2-.12.3-.18.36-.21.73-.42,1.09-.63,16.76-9.79,34.62-17.73,49.9-23.68,16.2-6.32,29.44-10.4,35.35-12.13,3.48,7.2,7.3,14.21,11.42,21.01.28.46.58.92.86,1.38.28.46.59.91.88,1.37.6.96,1.22,1.91,1.84,2.86-2.17.03-4.37.14-6.6.38-1.22.13-2.47.35-3.71.55-1.29.2-2.57.38-3.87.65-19.14,3.91-39.6,14.95-57,32.34-.94.94-1.79,1.91-2.69,2.87-.37.39-.75.79-1.11,1.18-.38.41-.78.81-1.15,1.23-1.45,1.61-2.82,3.26-4.16,4.91-.94,1.15-1.88,2.31-2.77,3.48-.79,1.04-1.53,2.09-2.28,3.14-6.69,9.41-11.78,19.22-15.08,28.93-.27.79-.5,1.57-.74,2.36-.24.78-.46,1.55-.68,2.33-5.4,19.04-4.05,37.29,5.01,50.57-4.41-17.95.76-40.86,14.13-62.71.68-1.11,1.35-2.22,2.07-3.32.78-1.19,1.62-2.38,2.44-3.56,4.52-6.45,9.73-12.76,15.67-18.75.15-.15.29-.31.44-.47.29-.29.59-.54.87-.82.42-.42.86-.8,1.28-1.21,18.63-17.9,40.04-29.21,59.6-32.9,1.22-.23,2.44-.46,3.65-.63,1.1-.16,2.18-.25,3.26-.36.09,0,.18-.02.28-.02,3.02,4.24,6.15,8.4,9.42,12.45-16.93,1.59-36.76,11.05-54.24,27.05-.5.46-1,.94-1.5,1.41-.5.47-1,.92-1.49,1.4-.41.4-.83.76-1.24,1.16-30.46,30.46-40.42,69.88-22.25,88.05,18.17,18.17,57.59,8.2,88.05-22.25.25-.25.47-.51.72-.76,2.48-2.52,4.79-5.11,6.99-7.73.23-.27.46-.55.69-.82.3-.36.62-.73.91-1.09.57-.71,1.15-1.42,1.7-2.13,4.05-5.25,7.5-10.63,10.37-16.01,1.66-3.1,3.12-6.2,4.37-9.28,2.89-7.11,4.67-14.08,5.28-20.63,1.92,1.56,3.87,3.09,5.84,4.59.43.33.84.68,1.28,1,.49.37,1,.72,1.49,1.09,1.26.93,2.56,1.82,3.84,2.74-1.85,19.68-11.94,41.98-29.24,61.74-.43.5-.86.99-1.3,1.48-.41.45-.85.89-1.27,1.34-1.35,1.47-2.7,2.94-4.13,4.38-10.22,10.22-21.37,18.38-32.63,24.39-.96.51-1.92,1-2.88,1.48-.91.45-1.82.9-2.73,1.32-17.98,8.4-35.92,11.18-50.57,7.58,11.24,7.66,26.05,9.83,41.87,7.05.69-.12,1.39-.29,2.08-.43.72-.15,1.44-.28,2.16-.45,10.97-2.51,22.3-7.36,33.22-14.38.9-.58,1.81-1.12,2.71-1.73.99-.67,1.95-1.42,2.93-2.12,4.93-3.57,9.74-7.57,14.35-12.02.4-.39.82-.75,1.22-1.14.15-.15.31-.28.47-.44.26-.26.48-.53.73-.78,19.65-19.96,31.04-43.82,32.91-65.08.09-1.08.12-2.14.16-3.21.03-.7.1-1.41.11-2.1.3.19.6.39.9.58.46.29.91.59,1.37.88,7.85,4.93,15.96,9.48,24.36,13.54-1.37,4.67-4.2,13.89-8.44,25.54-1.6,4.4-3.4,9.13-5.39,14.09-5.29,13.17-11.96,27.91-19.94,42.06-.42.75-.86,1.48-1.28,2.22-.27.47-.54.95-.82,1.42-.27.47-.54.94-.81,1.4-1.29,2.18-2.63,4.33-3.99,6.46-8.21,12.9-17.56,24.73-28.01,33.65-2.96,2.52-5.91,4.84-8.86,7.01-.45.33-.89.6-1.34.92-.45.33-.9.62-1.36.93-16.45,11.55-32.68,17.86-47.69,20.06-.54.08-1.08.13-1.62.2-.55.07-1.11.15-1.66.21-20.91,2.27-39.24-3.32-52.09-13.55ZM16.63,472.2l.35-.5-.38-.48c-.18-.23-17.98-23.02-14.53-53.48,1.95-17.23,11.88-35.15,30.08-48.61.45-.33.85-.69,1.3-1.01.44-.32.94-.6,1.39-.91,11.88-8.13,27.03-14.38,45.53-17.55.54-.09,1.06-.21,1.61-.3.55-.09,1.05-.21,1.61-.3,3.44-.51,7-.92,10.67-1.21,2.74-.22,5.54-.32,8.38-.32,13.1,0,27.07,2.22,40.85,5.64.53.13,1.05.26,1.58.39.22.05.43.11.65.16.31.08.62.16.92.24,18.86,4.93,37.19,11.99,52.27,18.61,15.93,6.99,28.22,13.48,33.62,16.43-2.63,7.49-4.92,15.13-6.85,22.92-.13.53-.24,1.06-.37,1.58-.13.53-.24,1.06-.37,1.59-.25,1.08-.51,2.16-.75,3.25-1.53-1.48-3.13-2.93-4.84-4.31-.96-.77-2-1.5-3.01-2.24-1.05-.77-2.09-1.55-3.19-2.28-16.3-10.77-38.57-17.43-63.17-17.43-1.75,0-3.46.1-5.18.16-.54.02-1.09.02-1.63.05-.54.03-1.09.02-1.63.05-1.77.11-3.49.31-5.22.49-1.48.15-2.96.3-4.41.5-1.29.18-2.56.4-3.83.61-11.38,1.92-21.91,5.26-31.12,9.79-.75.37-1.47.76-2.2,1.14-.72.38-1.42.77-2.12,1.16-17.29,9.64-29.23,23.51-32.22,39.3,9.58-15.81,29.43-28.36,54.34-34.35,1.26-.3,2.52-.61,3.81-.88,1.4-.29,2.83-.54,4.26-.79,7.29-1.28,14.93-2.02,22.82-2.14.57,0,1.14-.04,1.71-.04.15,0,.29-.01.43-.01.44,0,.86.03,1.29.04,26.5.23,50.27,7.47,67.06,18.92,1.03.7,2.06,1.41,3.04,2.14.88.66,1.71,1.36,2.55,2.05.04.03.08.07.12.1-.86,5.1-1.62,10.25-2.17,15.45-13.54-11.15-35.12-18.54-59.69-19.19-.68-.02-1.36-.05-2.05-.06-.47,0-.93-.04-1.41-.04-.21,0-.42.02-.64.02-42.78.21-77.36,20.94-77.36,46.51s34.92,46.53,78,46.53c.35,0,.69-.03,1.03-.03,2.92-.02,5.8-.15,8.64-.36.82-.06,1.62-.15,2.43-.22.14-.01.27-.02.41-.04.66-.06,1.34-.11,1.99-.18,7.36-.83,14.33-2.28,20.8-4.24,3.37-1.02,6.6-2.18,9.66-3.47,7.01-2.96,13.14-6.59,18.18-10.74.26,2.44.6,4.86.93,7.28.07.54.13,1.08.21,1.61.08.55.13,1.11.21,1.67.24,1.64.55,3.26.82,4.89-15.48,12.77-38.84,21.47-65.53,23-.62.04-1.25.03-1.87.05-.61.03-1.22.03-1.83.05-1.61.05-3.2.14-4.83.14-14.47,0-28.13-2.11-40.35-5.84-1.03-.31-2.04-.65-3.05-.98-.97-.33-1.94-.66-2.89-1-18.64-6.78-33.28-17.49-41.09-30.38,2.53,13.36,11.45,25.35,24.6,34.57.58.41,1.2.78,1.8,1.18.6.4,1.19.8,1.81,1.19,9.54,5.99,21,10.59,33.69,13.35,1.04.23,2.05.48,3.1.68,1.19.23,2.41.38,3.61.58,5.73.92,11.67,1.47,17.77,1.62.55.01,1.1.05,1.65.05.51,0,1.02.05,1.53.05.06,0,.11,0,.17,0,28.38-.04,53.66-8.92,70.19-22.78.83-.7,1.59-1.43,2.38-2.15.48-.44,1-.87,1.47-1.32.07.33.15.65.23.98.12.53.24,1.05.37,1.58,2.1,9.12,4.68,18.06,7.74,26.78-4.26,2.33-12.78,6.85-24.02,12.1-4.21,1.97-8.8,4.03-13.68,6.11-13.09,5.59-28.3,11.33-44.01,15.71-.93.26-1.87.5-2.8.75-.52.14-1.04.28-1.56.42-.53.14-1.07.28-1.6.42-2.34.59-4.69,1.14-7.03,1.66-14.9,3.3-29.87,5.06-43.56,3.98-3.87-.31-7.6-.76-11.23-1.31-.55-.08-1.06-.21-1.6-.3-.55-.09-1.07-.2-1.62-.3-19.8-3.47-35.74-10.48-47.91-19.54-.44-.33-.86-.67-1.29-1-.44-.34-.89-.68-1.32-1.02-16.39-13.18-25.4-30.1-27.25-46.41-3.45-30.5,14.38-55.96,14.56-56.21ZM100.9,179.15c19.13-24,49.74-29.4,50.04-29.46l.6-.1.07-.61c.03-.29,3.56-28.99,27.54-48.09,10.94-8.71,25.86-14.12,42.98-14.12,4.11,0,8.34.32,12.68.97.54.08,1.08.19,1.62.28.55.09,1.09.18,1.64.28,14.15,2.65,29.3,8.94,44.62,19.79.45.32.9.62,1.35.94.44.32.88.65,1.32.98,2.8,2.08,5.6,4.28,8.4,6.67,11.7,9.98,22.03,23.63,30.91,38.34.28.47.57.93.85,1.4.16.26.31.52.47.78.12.2.23.41.35.61,9.92,16.89,17.95,34.96,23.96,50.38,6.32,16.2,10.4,29.43,12.13,35.35-7.2,3.48-14.21,7.3-21.01,11.42-.46.28-.92.58-1.38.86-.46.28-.91.59-1.37.88-.96.6-1.91,1.22-2.86,1.84-.03-2.17-.14-4.37-.38-6.6-.13-1.22-.35-2.47-.55-3.71-.2-1.29-.38-2.56-.65-3.86-3.91-19.14-14.95-39.6-32.34-57-1.92-1.92-3.89-3.75-5.87-5.52-.4-.36-.81-.7-1.22-1.05-.42-.36-.85-.69-1.27-1.05-.61-.51-1.22-1.02-1.83-1.51-1.15-.94-2.3-1.88-3.47-2.76-1.04-.79-2.09-1.53-3.15-2.28-9.4-6.69-19.21-11.77-28.92-15.08-.79-.27-1.57-.5-2.36-.74-.78-.24-1.55-.46-2.33-.68-19.04-5.41-37.3-4.05-50.58,5.01,17.95-4.41,40.86.76,62.71,14.13,1.11.68,2.22,1.35,3.32,2.07,1.19.78,2.38,1.62,3.56,2.45,5.08,3.55,10.06,7.54,14.86,11.97.41.38.81.77,1.21,1.15.4.38.81.76,1.21,1.15.64.62,1.3,1.2,1.93,1.84,19.11,19.11,31.09,41.44,34.93,61.75.23,1.22.46,2.44.63,3.65.16,1.1.25,2.18.36,3.26,0,.09.02.19.02.28-4.24,3.02-8.4,6.15-12.45,9.42-1.72-18.31-12.59-40.02-31.03-58.46-.56-.56-1.15-1.07-1.72-1.62-.45-.43-.9-.85-1.35-1.27-.46-.43-.92-.88-1.39-1.3-29.75-27.11-66.3-35.36-83.6-18.06-18.17,18.17-8.21,57.59,22.25,88.05.25.25.51.47.76.71,2.78,2.74,5.64,5.28,8.55,7.67.05.04.1.08.14.12.66.54,1.32,1.13,1.98,1.65.75.59,1.5,1.12,2.25,1.69,4.89,3.68,9.88,6.87,14.88,9.54,3.1,1.66,6.19,3.12,9.27,4.37,7.11,2.89,14.08,4.67,20.62,5.28-1.56,1.92-3.09,3.87-4.59,5.84-.33.43-.68.84-1,1.28-.37.49-.73,1-1.09,1.49-.93,1.26-1.82,2.56-2.73,3.84-19.47-1.83-41.5-11.75-61.1-28.71-.5-.44-1.02-.83-1.52-1.28-.46-.41-.9-.86-1.35-1.27-1.67-1.52-3.34-3.06-4.96-4.68-10.22-10.22-18.39-21.37-24.39-32.64-.51-.96-1-1.92-1.47-2.87-.45-.91-.9-1.82-1.33-2.74-8.39-17.98-11.18-35.92-7.58-50.56-7.66,11.24-9.83,26.04-7.05,41.87.12.69.29,1.39.43,2.08.15.72.28,1.44.45,2.16,2.51,10.97,7.36,22.31,14.38,33.22.58.9,1.12,1.81,1.73,2.71.67.99,1.41,1.95,2.12,2.93,3.67,5.08,7.79,10.03,12.41,14.76.39.4.75.82,1.14,1.22.02.02.03.04.05.05.39.39.8.73,1.2,1.12,19.88,19.4,43.55,30.66,64.66,32.52,1.08.1,2.14.12,3.21.16.7.03,1.41.1,2.1.11-.19.3-.38.6-.58.9-.29.46-.59.91-.88,1.37-4.93,7.85-9.48,15.96-13.54,24.36-4.67-1.37-13.89-4.2-25.55-8.44-4.4-1.6-9.12-3.4-14.09-5.39-13.16-5.29-27.9-11.96-42.04-19.93-.69-.39-1.37-.79-2.05-1.18-.47-.27-.94-.54-1.4-.81-.47-.28-.95-.54-1.42-.82-2.24-1.33-4.45-2.7-6.64-4.09-12.9-8.21-24.74-17.56-33.65-28.01-2.52-2.96-4.84-5.91-7.01-8.86-.33-.45-.6-.89-.92-1.34-.32-.45-.62-.9-.93-1.35-11.55-16.46-17.86-32.68-20.06-47.69-.08-.54-.13-1.08-.2-1.62-.07-.55-.15-1.11-.21-1.65-2.27-20.91,3.32-39.25,13.55-52.09ZM367.84,31.16c-9.09,12.29-16.12,28.32-19.63,48.18-17.09-5.26-37.28-9.22-38.51-9.45l-.91-.18-.61.7c-.24.27-6.03,6.89-17.85,25.02-2.51,3.85-4.82,7.56-6.88,11.28-15.46-10.9-30.74-17.25-45.04-19.94,3.61-14.8,11.89-27.38,22.09-41.35,15.48-21.22,24.24-31.08,26.45-33.49,7.47,1.09,62.62,9.44,80.91,19.24ZM473.95,16.63l.5.35.48-.38c.23-.17,23.04-18,53.48-14.53,17.23,1.95,35.15,11.88,48.61,30.08.33.45.69.85,1.01,1.3.32.44.6.94.91,1.39,8.13,11.88,14.38,27.03,17.55,45.53.09.54.21,1.06.3,1.61.09.55.21,1.05.3,1.61.51,3.45.92,7,1.21,10.67,1.22,15.46-1.18,32.56-5.36,49.38-.13.51-.25,1.03-.38,1.54-.04.17-.09.35-.13.52-.09.36-.19.72-.29,1.08-4.93,18.82-11.97,37.12-18.57,52.17-7,15.94-13.47,28.19-16.42,33.59-7.49-2.63-15.13-4.92-22.92-6.85-.52-.13-1.06-.24-1.58-.37-.53-.13-1.06-.24-1.59-.37-1.08-.25-2.16-.51-3.25-.75,1.48-1.53,2.93-3.13,4.31-4.84.78-.96,1.5-2,2.24-3.01.77-1.05,1.54-2.08,2.27-3.19,10.78-16.3,17.44-38.57,17.44-63.17,0-1.57-.09-3.11-.15-4.66-.02-.56-.03-1.13-.05-1.69-.03-.54-.02-1.08-.05-1.62-.11-1.92-.31-3.8-.51-5.69-.15-1.48-.3-2.96-.5-4.41-.18-1.29-.4-2.56-.61-3.83-1.92-11.38-5.26-21.91-9.79-31.12-.37-.75-.76-1.47-1.14-2.2-.38-.72-.77-1.42-1.17-2.12-9.64-17.29-23.51-29.23-39.3-32.22,15.81,9.58,28.35,29.42,34.35,54.34.3,1.26.61,2.53.88,3.81.29,1.4.54,2.83.79,4.25,1.32,7.48,2.07,15.32,2.15,23.44,0,.51.04,1.02.04,1.54,0,.05,0,.09,0,.14,0,.6-.04,1.19-.05,1.79-.34,26.24-7.54,49.77-18.91,66.43-.7,1.03-1.4,2.06-2.13,3.03-.67.89-1.36,1.71-2.05,2.55-.03.04-.06.08-.1.11-5.1-.86-10.24-1.62-15.45-2.17,11.01-13.37,18.36-34.58,19.16-58.77.02-.68.05-1.37.06-2.05.01-.68.06-1.35.06-2.04,0-.09,0-.18,0-.28,0-43.07-20.83-78-46.52-78s-46.53,34.92-46.53,78c0,.35.03.68.03,1.03.03,3.91.26,7.74.62,11.49.32,3.34.74,6.62,1.3,9.8.22,1.24.48,2.44.74,3.65.28,1.33.55,2.68.87,3.98.46,1.83.98,3.6,1.51,5.36,1.02,3.37,2.18,6.6,3.48,9.66,2.96,7.01,6.59,13.14,10.74,18.17-2.44.26-4.86.6-7.28.93-.54.07-1.08.13-1.61.21-.55.08-1.11.13-1.67.21-1.64.24-3.26.55-4.89.83-11.46-13.89-19.64-34.13-22.3-57.44-.08-.68-.11-1.37-.18-2.05-.07-.68-.12-1.36-.18-2.04-.35-4.11-.59-8.27-.59-12.53,0-14.47,2.11-28.14,5.84-40.35.31-1.03.64-2.04.98-3.05.33-.97.66-1.94,1-2.89,6.78-18.64,17.49-33.28,30.38-41.09-13.36,2.53-25.35,11.45-34.58,24.6-.41.58-.78,1.2-1.18,1.8-.4.6-.8,1.19-1.19,1.81-5.99,9.54-10.59,21-13.35,33.69-.23,1.03-.48,2.04-.68,3.1-.23,1.19-.38,2.41-.58,3.62-1.08,6.73-1.72,13.73-1.72,20.95,0,.84.07,1.65.09,2.48,0,.58.04,1.14.06,1.72.02.6.04,1.19.06,1.78,1.15,26,9.68,48.99,22.58,64.38.7.83,1.43,1.6,2.16,2.38.45.48.87,1,1.33,1.47-.33.07-.65.15-.98.23-.53.12-1.06.24-1.58.37-9.12,2.1-18.06,4.68-26.78,7.74-2.33-4.26-6.85-12.79-12.1-24.05-1.97-4.22-4.03-8.81-6.12-13.71-5.58-13.07-11.3-28.24-15.68-43.91-.05-.17-.09-.35-.14-.52-.15-.53-.28-1.06-.43-1.59-.15-.54-.29-1.07-.43-1.61-.81-3.09-1.57-6.2-2.26-9.3-3.31-14.92-5.07-29.89-3.99-43.58.31-3.87.76-7.61,1.31-11.23.08-.55.21-1.06.3-1.6.09-.55.2-1.07.3-1.62,3.47-19.8,10.48-35.74,19.54-47.91.33-.44.67-.86,1-1.29.34-.44.68-.89,1.02-1.32,13.18-16.39,30.1-25.4,46.41-27.25,30.49-3.49,55.96,14.37,56.21,14.56ZM667.55,15.37c4.51,6.06,37.61,50.96,43.59,70.82-15.12,2.26-31.42,8.63-47.94,20.18-8.36-15.81-19.84-32.88-20.54-33.92l-.52-.77-.93.06c-.36.02-9.14.61-30.32,5.08-4.49.95-8.75,1.93-12.83,3.11-3.22-18.64-9.53-33.93-17.75-45.95,13.02-7.91,27.77-10.95,44.86-13.62,25.95-4.05,39.11-4.84,42.38-4.98ZM767,100.9c24.01,19.13,29.41,49.74,29.46,50.04l.1.6.61.07c.29.03,28.99,3.56,48.09,27.54,10.81,13.57,16.46,33.25,13.1,55.65-.08.55-.11,1.09-.21,1.64-.09.54-.24,1.09-.34,1.63-2.65,14.15-8.95,29.28-19.79,44.6-.32.45-.6.9-.93,1.35-.33.45-.6.9-.93,1.35-2.07,2.8-4.3,5.59-6.69,8.39-10.09,11.83-23.93,22.25-38.81,31.2-.47.28-.93.57-1.4.85-.1.06-.2.12-.3.18-.36.21-.73.42-1.09.63-16.75,9.78-34.62,17.72-49.89,23.68-16.21,6.32-29.45,10.41-35.36,12.14-3.48-7.2-7.3-14.21-11.42-21.01-.28-.46-.58-.92-.86-1.38-.28-.46-.59-.91-.88-1.37-.6-.96-1.22-1.91-1.84-2.86,2.17-.03,4.36-.14,6.6-.38,1.23-.13,2.48-.35,3.72-.55,1.28-.2,2.56-.38,3.86-.65,19.14-3.91,39.6-14.95,57-32.34.94-.94,1.79-1.91,2.69-2.87.37-.39.75-.79,1.11-1.19.38-.41.78-.81,1.15-1.23,1.45-1.61,2.82-3.26,4.16-4.91.94-1.15,1.88-2.31,2.77-3.48.79-1.04,1.53-2.09,2.28-3.15,6.69-9.4,11.77-19.21,15.08-28.92.27-.79.5-1.57.75-2.36.24-.78.46-1.55.68-2.32,5.41-19.04,4.05-37.3-5-50.58,4.41,17.95-.76,40.86-14.14,62.72-.68,1.11-1.35,2.22-2.07,3.32-.78,1.2-1.62,2.38-2.45,3.57-4.52,6.45-9.73,12.75-15.67,18.74-.15.15-.29.31-.44.47-.29.29-.58.54-.87.82-.42.41-.86.8-1.28,1.21-18.63,17.9-40.03,29.2-59.59,32.89-1.22.23-2.45.46-3.65.63-1.1.16-2.18.25-3.26.36-.1,0-.19.02-.29.03-3.02-4.24-6.15-8.4-9.42-12.45,16.93-1.59,36.76-11.05,54.24-27.06.5-.46,1-.94,1.5-1.41.5-.47,1-.92,1.49-1.4.41-.4.83-.76,1.24-1.16,30.46-30.46,40.42-69.88,22.25-88.05-18.17-18.17-57.59-8.21-88.05,22.25-.25.25-.47.51-.72.76-2.48,2.52-4.79,5.11-6.99,7.74-.23.27-.45.54-.68.81-.3.37-.62.73-.92,1.1-.57.71-1.15,1.42-1.7,2.13-4.05,5.26-7.5,10.64-10.38,16.03-1.65,3.1-3.11,6.19-4.36,9.27-2.89,7.11-4.67,14.08-5.28,20.63-1.92-1.56-3.87-3.09-5.84-4.59-.43-.33-.84-.68-1.27-1-.49-.37-1-.72-1.49-1.09-1.26-.93-2.56-1.82-3.84-2.74,1.85-19.68,11.94-41.98,29.24-61.74.43-.5.86-.99,1.3-1.49.41-.45.85-.89,1.26-1.34,1.36-1.47,2.7-2.95,4.14-4.38,10.22-10.22,21.37-18.39,32.63-24.39.96-.51,1.92-1,2.88-1.48.91-.45,1.82-.9,2.73-1.32,17.98-8.39,35.92-11.18,50.56-7.58-11.24-7.66-26.04-9.83-41.87-7.05-.69.12-1.39.29-2.08.43-.72.15-1.44.28-2.16.45-10.97,2.51-22.3,7.36-33.22,14.38-.9.58-1.81,1.12-2.71,1.73-.98.67-1.95,1.41-2.93,2.12-4.93,3.57-9.74,7.57-14.35,12.03-.4.39-.82.75-1.21,1.14-.15.15-.31.28-.47.44-.26.26-.48.53-.73.78-19.65,19.96-31.04,43.82-32.91,65.08-.09,1.08-.12,2.14-.16,3.21-.03.7-.1,1.41-.11,2.1-.3-.19-.6-.39-.9-.58-.46-.29-.91-.59-1.37-.88-7.85-4.93-15.96-9.48-24.36-13.54,1.37-4.67,4.2-13.89,8.44-25.55,1.6-4.4,3.4-9.13,5.39-14.09,5.29-13.16,11.96-27.9,19.93-42.04.42-.75.86-1.49,1.29-2.23.27-.47.54-.95.82-1.42.27-.47.54-.94.82-1.41,1.29-2.18,2.63-4.33,3.98-6.46,8.21-12.9,17.56-24.73,28-33.65,2.96-2.52,5.91-4.84,8.86-7.02.45-.33.89-.6,1.34-.92.45-.33.9-.62,1.35-.93,16.46-11.55,32.68-17.86,47.69-20.06.54-.08,1.08-.14,1.62-.2.55-.07,1.11-.15,1.65-.21,20.91-2.27,39.24,3.32,52.08,13.55ZM758.18,442.22c1.52-.28,3.04-.57,4.61-.8,6.46-.96,13.33-1.48,20.45-1.48,38.17,0,69.12,14.84,69.12,33.14s-30.95,33.14-69.12,33.14c-1.6,0-3.16-.06-4.73-.11-.81-.03-1.64-.02-2.44-.06-.93-.05-1.83-.14-2.75-.2-19.01-1.31-35.5-6.32-46.21-13.47.48-6.38.8-12.79.8-19.29s-.32-12.91-.8-19.29c6.51-4.35,15.16-7.9,25.22-10.32,1.9-.46,3.85-.87,5.85-1.25ZM688.97,648.1c2.08,1.2,4.17,2.48,6.26,3.88,6.94,4.63,13.93,10.33,20.59,16.99,26.99,26.99,38.38,59.36,25.44,72.31-12.64,12.64-43.81,2.02-70.41-23.64-.52-.51-1.06-.98-1.58-1.5-.11-.11-.21-.2-.32-.3-.43-.43-.83-.88-1.25-1.32-15.68-16.08-25.83-33.87-28.67-48.29,9.73-8.37,18.81-17.45,27.18-27.18,4.69.92,9.72,2.62,14.95,5.03,2.56,1.18,5.17,2.51,7.8,4.03ZM499.28,741.04c.19.52.38,1.05.57,1.58.19.53.39,1.04.57,1.58,3.65,11.11,5.8,24.55,5.8,39.04,0,38.17-14.84,69.12-33.14,69.12s-33.14-30.95-33.14-69.12c0-1.99.06-3.95.14-5.9.04-.88.08-1.75.13-2.62.06-.93.13-1.85.2-2.78,1.46-18.43,6.39-34.38,13.37-44.83,6.38.48,12.79.8,19.29.8s12.91-.32,19.29-.8c2.62,3.92,4.95,8.61,6.92,13.93ZM302.09,681.17c-1.71,3.73-3.79,7.54-6.21,11.38-.97,1.55-2,3.1-3.08,4.66-4.38,6.29-9.58,12.59-15.6,18.61-26.99,26.99-59.37,38.39-72.31,25.44-12.94-12.94-1.55-45.31,25.44-72.31,1.92-1.92,3.87-3.74,5.83-5.49.68-.61,1.36-1.18,2.04-1.76.72-.62,1.43-1.26,2.15-1.86,13.59-11.23,27.72-18.48,39.58-20.81,8.37,9.73,17.45,18.81,27.18,27.18-.92,4.69-2.62,9.72-5.03,14.95ZM187.97,503.94c-1.52.28-3.03.57-4.6.8-6.47.96-13.33,1.48-20.46,1.48-38.17,0-69.12-14.83-69.12-33.14s30.95-33.14,69.12-33.14c1.6,0,3.16.06,4.73.11.81.03,1.63.02,2.44.06.93.05,1.83.14,2.75.2,19.01,1.31,35.5,6.32,46.21,13.47-.48,6.38-.81,12.79-.81,19.29s.32,12.91.81,19.29c-6.52,4.35-15.16,7.9-25.22,10.32-1.9.46-3.85.87-5.85,1.25ZM257.18,298.06c-2.08-1.2-4.17-2.48-6.26-3.88-6.94-4.63-13.93-10.33-20.59-16.99-26.99-26.99-38.39-59.36-25.44-72.31,12.64-12.64,43.8-2.02,70.4,23.63.53.51,1.06.99,1.59,1.51.11.11.21.2.32.3.43.43.82.87,1.25,1.31,15.68,16.08,25.84,33.87,28.67,48.3-9.73,8.37-18.81,17.45-27.18,27.18-4.69-.92-9.72-2.62-14.95-5.03-2.56-1.18-5.17-2.51-7.8-4.03ZM446.87,205.12c-.19-.52-.38-1.05-.56-1.58-.19-.53-.39-1.04-.57-1.59-3.65-11.11-5.8-24.55-5.8-39.04,0-38.17,14.84-69.12,33.14-69.12s33.14,30.94,33.14,69.12c0,1.99-.06,3.95-.14,5.9-.04.88-.08,1.75-.13,2.62-.06.93-.13,1.86-.2,2.78-1.46,18.43-6.39,34.37-13.37,44.83-6.37-.48-12.79-.8-19.29-.8s-12.91.32-19.29.8c-2.62-3.92-4.95-8.61-6.92-13.93ZM644.07,264.99c1.72-3.73,3.8-7.54,6.21-11.39.97-1.55,2-3.1,3.08-4.66,4.38-6.29,9.58-12.59,15.6-18.62,26.99-26.99,59.36-38.38,72.31-25.44,12.94,12.94,1.55,45.31-25.44,72.31-1.92,1.92-3.88,3.74-5.85,5.5-.67.6-1.35,1.17-2.03,1.75-.7.61-1.4,1.24-2.11,1.82-13.6,11.25-27.75,18.51-39.62,20.84-8.37-9.73-17.45-18.81-27.18-27.18.92-4.68,2.62-9.72,5.02-14.94ZM596.82,812.43c2.29,3.57,4.51,6.55,6.54,8.66,3.59,3.72,8.47,7.07,12.79,7.07,1.16,0,2.29-.24,3.33-.78,5.21-2.7,6.37-11.87,3.42-27.24-.36-1.86-.78-3.71-1.23-5.56,8.61,13.86,18.51,26.64,29.66,36.15,2.89,2.47,5.79,4.74,8.67,6.88-2.04,3.75-4.37,7.48-6.9,11.37-9.56,14.67-15.21,21.82-16.97,23.95-4.28-.86-22.39-4.62-37.6-9.32.57-3.74,1.05-7.58,1.36-11.58.99-12.48-.36-26-3.09-39.59ZM593.68,798.86c8.49-.88,16.6-3,24.17-6.16.71,2.68,1.34,5.36,1.86,8.04,3.59,18.76,0,22.86-1.72,23.75-3.14,1.62-8.56-1.8-12.3-5.66-3.2-3.32-7.18-9.34-11.24-16.87-.26-1.03-.5-2.06-.77-3.09ZM346.25,852.01c.3,3.79.72,7.45,1.26,11-4.09,1.2-8.38,2.2-12.91,3.16-17.14,3.61-26.19,4.67-28.94,4.93-2.42-3.63-12.56-19.08-19.99-33.15,3.05-2.24,6.1-4.64,9.15-7.24,9.52-8.12,18.13-18.64,25.8-30.17-.9,4.14-1.45,7.81-1.5,10.74-.11,6.56,1.66,14.17,6.96,15.85.67.21,1.36.32,2.07.32,5.28,0,11.87-5.75,19.6-17.16,1.06-1.57,2.08-3.18,3.07-4.81-3.71,15.89-5.74,31.94-4.59,46.55ZM349.33,133.73c-2.29-3.57-4.5-6.55-6.54-8.66-4.56-4.72-11.19-8.86-16.13-6.29-5.21,2.71-6.36,11.87-3.42,27.24.36,1.86.78,3.71,1.23,5.57-8.61-13.86-18.52-26.64-29.66-36.15-2.89-2.47-5.78-4.76-8.67-6.89,2.04-3.75,4.37-7.48,6.9-11.36,9.56-14.68,15.21-21.82,16.97-23.95,4.28.86,22.39,4.62,37.6,9.32-.58,3.74-1.05,7.58-1.36,11.58-.99,12.48.36,26,3.08,39.58ZM352.47,147.28c-8.4.86-16.52,2.94-24.18,6.12-.71-2.66-1.33-5.32-1.84-7.98-3.59-18.76,0-22.86,1.72-23.75.55-.28,1.16-.41,1.83-.41,3.15,0,7.39,2.89,10.47,6.07,3.2,3.32,7.18,9.34,11.23,16.86.26,1.03.5,2.06.77,3.09ZM599.91,94.15c-.3-3.79-.73-7.45-1.26-11.01,4.09-1.21,8.38-2.2,12.91-3.16,17.14-3.61,26.19-4.67,28.94-4.93,2.42,3.63,12.57,19.1,20,33.17-3.05,2.24-6.1,4.62-9.16,7.23-9.52,8.12-18.13,18.64-25.8,30.17.9-4.14,1.45-7.82,1.5-10.74.11-6.56-1.65-14.17-6.96-15.85-5.6-1.79-12.89,3.9-21.68,16.85-1.07,1.57-2.08,3.18-3.08,4.82,3.71-15.89,5.75-31.94,4.59-46.55ZM717.01,418.33c.12.53.25,1.05.37,1.58.19.89.43,1.77.62,2.67.46,2.25.83,4.54,1.23,6.81.17.93.35,1.86.5,2.8.11.65.25,1.29.35,1.95.04.28.11.56.15.85.76,4.93,1.32,9.91,1.78,14.93.22,2.42.4,4.85.56,7.29.33,5.25.56,10.54.56,15.87s-.23,10.62-.56,15.87c-.15,2.44-.33,4.87-.56,7.29-.49,5.3-1.12,10.57-1.94,15.77-.35,2.21-.77,4.39-1.18,6.58-.17.9-.31,1.8-.48,2.7-.15.76-.26,1.53-.42,2.28-.03.15-.07.3-.11.46-.43,2.06-.94,4.09-1.42,6.14-.12.53-.24,1.06-.37,1.58-.13.53-.23,1.06-.37,1.58-1.68,6.77-3.67,13.43-5.89,19.97-.13.39-.26.77-.39,1.16-.13.38-.26.77-.39,1.15-1.38,3.94-2.85,7.83-4.42,11.68-.8,1.97-1.63,3.92-2.48,5.87-1.24,2.83-2.49,5.65-3.83,8.42-.18.38-.39.74-.57,1.12-.19.38-.39.74-.57,1.12-3.68,7.42-7.73,14.63-12.1,21.62-.29.46-.59.91-.88,1.37-.29.46-.58.91-.88,1.36-.51.8-1.01,1.61-1.54,2.4-1.23,1.86-2.49,3.69-3.77,5.52-.53.77-1.08,1.52-1.62,2.28-.44.61-.86,1.23-1.31,1.84-.11.15-.21.3-.32.45-3.02,4.12-6.14,8.15-9.4,12.07-1.56,1.88-3.18,3.7-4.79,5.53-6.97,7.9-14.42,15.35-22.31,22.32-1.83,1.61-3.66,3.23-5.53,4.79-4.06,3.38-8.25,6.6-12.52,9.72-1.85,1.35-3.72,2.69-5.61,3.99-.75.52-1.49,1.06-2.24,1.57-.59.39-1.2.75-1.78,1.14-.21.14-.44.28-.65.42-1.7,1.12-3.41,2.22-5.14,3.3-.46.29-.91.59-1.37.88s-.92.57-1.39.85c-5.92,3.58-12.02,6.89-18.25,9.98-.37.18-.73.38-1.11.57-.37.18-.73.38-1.1.56-3.73,1.8-7.51,3.52-11.34,5.14-1.96.83-3.96,1.57-5.94,2.35-2.87,1.13-5.76,2.22-8.68,3.24-.39.14-.78.26-1.17.4-.39.13-.78.26-1.16.39-7.79,2.65-15.75,4.91-23.86,6.79-.53.12-1.05.25-1.58.37s-1.05.25-1.58.37c-.89.19-1.77.43-2.67.62-2.26.46-4.55.83-6.82,1.23-.93.17-1.86.35-2.8.5-.65.11-1.29.25-1.94.35-.29.05-.57.11-.85.15-4.92.76-9.91,1.32-14.92,1.78-2.42.22-4.85.4-7.29.56-5.25.33-10.54.56-15.87.56s-10.62-.23-15.88-.56c-2.44-.15-4.87-.33-7.29-.56-5.3-.49-10.57-1.12-15.77-1.94-2.2-.35-4.38-.77-6.57-1.18-.9-.17-1.81-.31-2.7-.48-.76-.15-1.53-.26-2.29-.42-.15-.03-.3-.07-.45-.1-2.07-.43-4.1-.94-6.15-1.42-.53-.12-1.06-.24-1.58-.37-.53-.13-1.06-.24-1.59-.37-6.78-1.68-13.43-3.67-19.98-5.9-.38-.13-.77-.26-1.15-.39-.38-.13-.77-.26-1.16-.39-3.94-1.38-7.83-2.85-11.67-4.42-1.97-.8-3.93-1.63-5.87-2.48-2.82-1.24-5.65-2.48-8.42-3.82-.38-.18-.74-.39-1.12-.58-.38-.18-.74-.39-1.11-.57-7.43-3.68-14.63-7.73-21.62-12.11-.46-.29-.91-.59-1.37-.88-.46-.29-.91-.58-1.36-.88-.8-.51-1.61-1.02-2.4-1.54-1.86-1.23-3.69-2.49-5.52-3.77-.77-.54-1.52-1.08-2.28-1.62-.61-.44-1.23-.86-1.83-1.31-.15-.11-.3-.21-.45-.32-4.12-3.02-8.15-6.14-12.07-9.4-1.88-1.56-3.7-3.18-5.53-4.79-7.9-6.97-15.35-14.42-22.32-22.32-1.61-1.83-3.23-3.66-4.79-5.53-3.38-4.06-6.6-8.25-9.72-12.52-1.35-1.85-2.69-3.72-3.99-5.61-.52-.75-1.06-1.49-1.57-2.25-.39-.59-.75-1.19-1.14-1.78-.14-.21-.28-.43-.42-.65-1.12-1.7-2.22-3.41-3.3-5.14-.29-.46-.59-.91-.88-1.37-.28-.46-.57-.92-.85-1.39-3.58-5.92-6.89-12.02-9.98-18.25-.18-.37-.38-.73-.57-1.1-.18-.37-.38-.73-.56-1.1-1.8-3.73-3.52-7.51-5.14-11.33-.83-1.96-1.57-3.96-2.35-5.94-1.13-2.87-2.22-5.77-3.25-8.69-.14-.39-.26-.78-.4-1.17-.13-.39-.26-.78-.4-1.17-2.65-7.79-4.91-15.75-6.79-23.86-.12-.53-.25-1.05-.36-1.58-.12-.53-.25-1.05-.37-1.58-.19-.89-.43-1.77-.62-2.67-.46-2.25-.83-4.54-1.23-6.82-.17-.93-.35-1.86-.5-2.8-.11-.65-.25-1.29-.35-1.95-.04-.29-.11-.56-.15-.85-.76-4.92-1.32-9.91-1.78-14.92-.22-2.42-.4-4.85-.56-7.29-.33-5.25-.56-10.54-.56-15.87s.23-10.62.56-15.87c.15-2.44.33-4.87.56-7.29.49-5.3,1.12-10.57,1.94-15.77.35-2.21.77-4.39,1.18-6.57.17-.9.31-1.81.48-2.7.15-.76.26-1.53.42-2.29.03-.15.07-.3.1-.45.43-2.06.94-4.1,1.42-6.14.12-.53.24-1.06.37-1.58.13-.53.24-1.06.37-1.58,1.68-6.77,3.67-13.43,5.89-19.97.13-.39.26-.77.39-1.16.13-.38.26-.77.39-1.15,1.38-3.94,2.85-7.83,4.42-11.68.8-1.97,1.63-3.92,2.48-5.87,1.24-2.83,2.49-5.65,3.83-8.43.18-.38.39-.74.57-1.12.18-.38.39-.74.57-1.12,3.68-7.42,7.73-14.63,12.1-21.62.29-.46.59-.91.88-1.37.29-.46.58-.91.88-1.37.51-.8,1.02-1.61,1.54-2.4,1.23-1.86,2.49-3.69,3.77-5.51.54-.77,1.08-1.53,1.63-2.28.44-.61.87-1.23,1.31-1.84.11-.15.21-.3.32-.44,3.02-4.12,6.14-8.15,9.4-12.08,1.56-1.88,3.18-3.7,4.79-5.53,6.97-7.9,14.42-15.35,22.31-22.31,1.83-1.61,3.65-3.23,5.53-4.79,4.06-3.38,8.25-6.6,12.52-9.72,1.85-1.35,3.72-2.69,5.61-3.99.75-.52,1.49-1.06,2.25-1.57.58-.39,1.19-.75,1.78-1.14.21-.14.44-.28.65-.42,1.7-1.12,3.41-2.22,5.14-3.3.46-.29.9-.59,1.37-.88.46-.28.92-.57,1.39-.85,5.92-3.58,12.02-6.89,18.25-9.98.37-.18.73-.38,1.1-.57.37-.18.73-.39,1.1-.57,3.73-1.8,7.5-3.52,11.33-5.14,1.96-.83,3.96-1.57,5.94-2.35,2.87-1.13,5.77-2.22,8.69-3.24.39-.14.78-.26,1.17-.4.39-.13.78-.26,1.17-.4,7.79-2.65,15.75-4.91,23.86-6.79.53-.12,1.05-.25,1.58-.37.53-.12,1.05-.25,1.58-.37.89-.19,1.77-.43,2.67-.62,2.25-.46,4.54-.83,6.81-1.23.93-.17,1.86-.35,2.8-.5.65-.11,1.29-.25,1.95-.35.28-.04.56-.11.85-.15,4.93-.76,9.91-1.32,14.92-1.78,2.42-.22,4.85-.4,7.29-.56,5.25-.33,10.54-.56,15.87-.56s10.62.23,15.87.56c2.44.15,4.87.33,7.29.56,5.3.49,10.57,1.12,15.77,1.94,2.21.35,4.39.77,6.58,1.18.9.17,1.81.31,2.7.48.76.15,1.53.26,2.28.42.15.03.3.07.45.1,2.06.43,4.09.94,6.14,1.42.53.12,1.06.24,1.59.37.53.13,1.06.24,1.58.37,6.78,1.68,13.43,3.67,19.98,5.89.38.13.77.26,1.15.39s.77.26,1.15.39c3.94,1.38,7.83,2.85,11.67,4.42,1.97.8,3.92,1.63,5.87,2.48,2.83,1.24,5.66,2.49,8.43,3.83.38.18.74.39,1.11.57.38.18.74.39,1.12.57,7.42,3.68,14.63,7.73,21.62,12.1.46.29.91.59,1.37.88s.91.58,1.37.88c.8.51,1.61,1.01,2.4,1.54,1.86,1.23,3.69,2.49,5.51,3.77.77.54,1.53,1.08,2.29,1.63.61.44,1.23.86,1.84,1.31.15.11.3.21.45.32,4.12,3.02,8.15,6.14,12.07,9.4,1.88,1.56,3.7,3.18,5.53,4.79,7.9,6.97,15.35,14.42,22.31,22.31,1.61,1.83,3.23,3.66,4.79,5.53,3.38,4.06,6.6,8.25,9.72,12.52,1.35,1.85,2.69,3.72,4,5.62.52.75,1.06,1.49,1.56,2.24.39.58.75,1.19,1.14,1.78.14.22.28.44.42.66,1.11,1.7,2.22,3.4,3.29,5.13.29.46.6.91.88,1.37.28.46.57.92.85,1.38,3.58,5.92,6.89,12.02,9.98,18.25.18.37.38.73.57,1.11.18.37.38.73.56,1.1,1.8,3.73,3.52,7.51,5.14,11.34.83,1.96,1.57,3.96,2.35,5.94,1.13,2.87,2.22,5.77,3.24,8.69.14.39.26.78.4,1.17.13.39.26.78.4,1.17,2.65,7.79,4.91,15.75,6.79,23.86.12.53.25,1.05.36,1.58ZM619.12,155.84c-7.01-4.85-14.57-8.54-22.44-11.08,1.4-2.42,2.86-4.78,4.4-7.05,9.16-13.5,14.47-15.73,16.97-15.73.43,0,.78.07,1.05.15,3.35,1.06,4.78,7.33,4.69,12.7-.08,4.61-1.52,11.68-3.98,19.87-.23.38-.46.76-.69,1.14ZM156.01,327.15c-4.88,6.87-8.68,14.36-11.33,22.29-2.39-1.38-4.72-2.83-6.98-4.36-15.81-10.73-16.16-16.17-15.58-18.02,1.03-3.25,6.95-4.69,12.2-4.69.17,0,.33,0,.5,0,4.61.08,11.69,1.52,19.88,3.98.44.26.88.53,1.32.79ZM134.88,319.13c-6.68-.05-14.17,1.66-15.85,6.96-1.77,5.6,3.9,12.89,16.85,21.68,1.55,1.05,3.14,2.06,4.76,3.04-15.86-3.7-31.89-5.72-46.49-4.55-3.79.3-7.45.73-11.01,1.26-1.21-4.09-2.2-8.38-3.16-12.91-3.61-17.14-4.67-26.19-4.93-28.94,3.63-2.42,19.09-12.56,33.17-20,2.24,3.05,4.62,6.1,7.23,9.16,8.12,9.52,18.64,18.13,30.17,25.81-4.14-.9-7.82-1.45-10.75-1.5ZM145.16,594.22c1.62,8.27,4.44,16.2,8.37,23.61-2.7.72-5.41,1.36-8.12,1.88-18.76,3.61-22.85,0-23.74-1.72-1.62-3.13,1.79-8.57,5.66-12.3,3.32-3.2,9.33-7.18,16.85-11.23.33-.08.66-.17.98-.25ZM125.07,603.36c-4.72,4.56-8.85,11.19-6.28,16.13,1.73,3.33,6.1,5.01,13.06,5.01,3.91,0,8.64-.53,14.18-1.59,1.86-.36,3.71-.78,5.57-1.23-13.86,8.61-26.64,18.51-36.15,29.66-2.47,2.89-4.76,5.79-6.89,8.67-3.75-2.04-7.48-4.37-11.36-6.89-14.68-9.56-21.82-15.22-23.95-16.98.86-4.28,4.62-22.39,9.32-37.6,3.74.57,7.58,1.05,11.58,1.36,2.79.22,5.61.33,8.49.33,10.02,0,20.55-1.3,31.1-3.42-3.57,2.29-6.56,4.51-8.67,6.54ZM327.04,790.32c7.01,4.85,14.57,8.53,22.44,11.07-1.4,2.42-2.86,4.78-4.41,7.07-10.71,15.79-16.16,16.16-18.02,15.57-3.35-1.06-4.78-7.33-4.69-12.7.08-4.61,1.52-11.68,3.98-19.86.23-.38.46-.77.69-1.15ZM790.12,619c4.92-6.96,8.68-14.47,11.3-22.31,2.41,1.39,4.77,2.85,7.04,4.39,15.8,10.73,16.15,16.17,15.57,18.01-1.07,3.36-7.4,4.85-12.7,4.7-4.61-.08-11.68-1.52-19.86-3.98-.45-.27-.9-.54-1.35-.81ZM811.28,627.03c.19,0,.39,0,.58,0,6.42,0,13.64-1.82,15.27-6.97,1.77-5.6-3.9-12.89-16.84-21.68-1.58-1.07-3.2-2.09-4.84-3.09,12.87,3.01,25.85,4.93,38.08,4.93,2.87,0,5.71-.1,8.49-.33,3.79-.3,7.45-.72,11-1.26,1.21,4.09,2.2,8.38,3.16,12.91,3.61,17.14,4.66,26.19,4.93,28.94-3.63,2.42-19.09,12.57-33.17,20-2.24-3.05-4.62-6.11-7.23-9.16-8.12-9.52-18.64-18.12-30.16-25.8,4.14.9,7.81,1.45,10.74,1.5ZM800.99,351.92c-1.62-8.26-4.44-16.19-8.37-23.59,2.7-.72,5.41-1.36,8.12-1.88,5.83-1.12,10.24-1.54,13.58-1.54,7.41,0,9.55,2.08,10.16,3.26,1.62,3.13-1.79,8.57-5.66,12.3-3.31,3.19-9.3,7.16-16.79,11.19-.35.09-.7.17-1.05.26ZM821.08,342.8c4.72-4.56,8.85-11.19,6.28-16.13-2.7-5.21-11.86-6.36-27.24-3.42-1.86.36-3.71.78-5.57,1.23,13.86-8.61,26.64-18.51,36.15-29.66,2.47-2.89,4.76-5.78,6.89-8.67,3.75,2.04,7.48,4.36,11.36,6.89,14.67,9.56,21.82,15.22,23.95,16.98-.86,4.28-4.62,22.39-9.31,37.6-3.74-.57-7.58-1.05-11.58-1.36-12.47-.99-25.98.35-39.54,3.06,3.55-2.28,6.52-4.49,8.62-6.51ZM866.82,348.21c5.26-17.09,9.22-37.28,9.46-38.51l.18-.92-.7-.61c-.27-.24-6.9-6.03-25.03-17.85-3.85-2.51-7.56-4.82-11.27-6.87,10.9-15.45,17.25-30.73,19.94-45.04,14.8,3.61,27.38,11.89,41.35,22.09,21.22,15.48,31.08,24.24,33.5,26.45-1.09,7.48-9.44,62.62-19.24,80.9-12.29-9.09-28.32-16.12-48.17-19.63ZM106.36,282.96c-15.81,8.36-32.88,19.84-33.92,20.54l-.77.52.06.93c.02.36.61,9.14,5.08,30.32.95,4.49,1.93,8.75,3.11,12.83-18.64,3.22-33.93,9.53-45.95,17.75-7.92-13.02-10.95-27.77-13.62-44.86-4.06-25.95-4.85-39.11-4.99-42.38,6.06-4.51,50.96-37.61,70.82-43.59,2.26,15.12,8.63,31.42,20.18,47.94ZM79.33,597.95c-5.26,17.09-9.22,37.28-9.46,38.51l-.18.91.7.61c.27.24,6.89,6.03,25.02,17.85,3.85,2.51,7.56,4.81,11.28,6.86-10.91,15.46-17.26,30.74-19.94,45.05-14.8-3.61-27.38-11.89-41.35-22.09-21.22-15.48-31.08-24.23-33.49-26.44,1.09-7.47,9.44-62.62,19.24-80.91,12.29,9.09,28.32,16.12,48.18,19.63ZM839.8,663.2c15.81-8.36,32.88-19.84,33.91-20.54l.77-.52-.06-.93c-.02-.36-.6-9.14-5.07-30.32-.95-4.49-1.93-8.75-3.11-12.83,18.64-3.22,33.94-9.53,45.95-17.75,7.91,13.02,10.95,27.77,13.62,44.85,4.06,25.95,4.85,39.11,4.99,42.38-6.06,4.51-50.96,37.61-70.82,43.59-2.26-15.12-8.63-31.42-20.18-47.94ZM912.7,578.04c-.44.32-.94.6-1.39.91-11.88,8.13-27.04,14.38-45.54,17.54-.54.09-1.06.21-1.61.3-.55.09-1.05.21-1.61.3-3.44.51-7,.91-10.67,1.21-15.42,1.23-32.48-1.16-49.27-5.32-.51-.13-1.03-.25-1.54-.38-.2-.05-.4-.1-.6-.15-.33-.09-.66-.18-1-.27-18.86-4.93-37.2-11.99-52.28-18.61-15.94-7-28.19-13.47-33.58-16.43,2.63-7.49,4.92-15.13,6.85-22.92.13-.53.24-1.06.37-1.58.13-.53.24-1.06.37-1.59.25-1.08.51-2.16.75-3.25,1.53,1.48,3.13,2.93,4.84,4.31.96.77,2,1.5,3.01,2.24,1.05.77,2.09,1.55,3.19,2.28,16.3,10.77,38.57,17.43,63.17,17.43,1.74,0,3.44-.1,5.15-.16.55-.02,1.11-.02,1.66-.05.53-.03,1.07-.02,1.59-.05,1.77-.11,3.51-.31,5.25-.49,1.48-.15,2.96-.3,4.41-.5,1.29-.18,2.56-.4,3.83-.61,11.38-1.92,21.91-5.26,31.12-9.79.75-.37,1.47-.76,2.2-1.14.72-.38,1.42-.77,2.12-1.17,17.29-9.64,29.23-23.51,32.22-39.3-9.58,15.81-29.43,28.35-54.34,34.35-1.26.3-2.52.61-3.81.88-1.4.29-2.83.54-4.26.79-7.3,1.29-14.95,2.03-22.86,2.14-.56,0-1.11.04-1.68.04-.15,0-.29.01-.43.01-.44,0-.88-.03-1.32-.04-26.49-.23-50.25-7.47-67.04-18.93-1.03-.7-2.06-1.4-3.03-2.14-.89-.67-1.71-1.36-2.55-2.05-.04-.03-.08-.07-.12-.1.86-5.1,1.62-10.24,2.17-15.45,13.53,11.14,35.11,18.54,59.68,19.19.69.02,1.37.05,2.06.06.47,0,.93.04,1.41.04.21,0,.4-.02.61-.02,42.79-.2,77.39-20.94,77.39-46.51s-34.92-46.53-78-46.53c-.35,0-.69.03-1.03.03-2.92.02-5.8.15-8.64.36-.82.06-1.62.15-2.43.22-.14.01-.27.02-.41.04-.66.06-1.33.11-1.99.18-7.36.83-14.33,2.28-20.8,4.24-3.37,1.02-6.59,2.18-9.65,3.47-7.01,2.96-13.14,6.59-18.18,10.74-.26-2.44-.6-4.86-.93-7.28-.07-.54-.13-1.08-.21-1.61-.08-.55-.13-1.12-.21-1.67-.25-1.64-.55-3.26-.83-4.88,15.48-12.77,38.84-21.47,65.53-23,.62-.04,1.25-.03,1.87-.05.61-.03,1.22-.03,1.83-.05,1.61-.05,3.2-.14,4.83-.14,14.47,0,28.14,2.11,40.35,5.84,1.03.31,2.04.64,3.04.98.97.33,1.94.66,2.89,1,18.64,6.78,33.28,17.49,41.09,30.38-2.53-13.36-11.45-25.35-24.59-34.58-.58-.41-1.2-.78-1.8-1.18-.6-.4-1.19-.8-1.81-1.19-9.54-5.99-20.99-10.58-33.69-13.35-1.04-.23-2.05-.48-3.1-.68-1.18-.23-2.41-.38-3.61-.58-5.74-.92-11.67-1.47-17.78-1.62-.55-.01-1.1-.05-1.65-.05-.51,0-1.01-.05-1.53-.05-.06,0-.11,0-.17,0-28.38.04-53.66,8.92-70.19,22.78-.83.7-1.6,1.43-2.38,2.15-.48.44-1,.87-1.47,1.33-.07-.33-.15-.65-.23-.98-.12-.53-.24-1.05-.37-1.58-2.1-9.12-4.68-18.06-7.74-26.78,4.26-2.33,12.79-6.85,24.04-12.1,4.22-1.97,8.81-4.03,13.71-6.12,13.07-5.58,28.24-11.3,43.92-15.68.95-.26,1.9-.51,2.85-.77.52-.14,1.04-.28,1.56-.42.53-.14,1.07-.28,1.6-.42,2.33-.59,4.67-1.14,7.01-1.66,14.92-3.31,29.9-5.08,43.58-3.99,3.87.31,7.61.76,11.23,1.31.55.08,1.06.21,1.6.29.55.09,1.08.2,1.62.3,19.8,3.47,35.74,10.48,47.9,19.54.44.33.86.67,1.29,1,.44.34.89.68,1.32,1.02,16.39,13.18,25.4,30.1,27.25,46.41,3.45,30.5-14.38,55.96-14.56,56.21l-.35.5.38.48c.18.23,17.98,23.02,14.53,53.48-1.95,17.23-11.88,35.15-30.08,48.61-.45.33-.85.69-1.3,1.01Z"/>
  <path class="cls-1" d="M742.33,478.75c.51.09,1.07.18,1.61.27.53.09,1.05.18,1.61.27,7.55,1.14,17.2,1.82,27.72,1.82,24.15,0,43.72-3.59,43.72-8.03s-19.58-8.03-43.72-8.03c-10.52,0-20.18.68-27.72,1.82-.56.08-1.08.18-1.62.27-.54.09-1.1.18-1.62.27-7.89,1.45-12.77,3.46-12.77,5.67s4.88,4.22,12.78,5.67Z"/>
  <path class="cls-1" d="M203.83,467.41c-.51-.09-1.07-.18-1.61-.27-.53-.09-1.05-.18-1.61-.27-7.55-1.14-17.2-1.82-27.72-1.82-24.15,0-43.72,3.59-43.72,8.03s19.57,8.03,43.72,8.03c10.53,0,20.18-.68,27.73-1.82.56-.08,1.08-.18,1.61-.27.54-.09,1.1-.18,1.62-.27,7.89-1.45,12.76-3.45,12.76-5.67s-4.88-4.22-12.78-5.67Z"/>
  <path class="cls-1" d="M667.5,286.68c.43-.29.88-.63,1.32-.94.45-.32.89-.63,1.35-.97,6.13-4.53,13.43-10.86,20.85-18.29,17.08-17.07,28.38-33.46,25.24-36.59-3.14-3.13-19.52,8.16-36.59,25.24-7.44,7.44-13.78,14.75-18.31,20.88-.34.46-.64.89-.96,1.34-.31.43-.63.87-.92,1.28-4.57,6.63-6.62,11.51-5.05,13.08,1.57,1.57,6.45-.47,13.07-5.04Z"/>
  <path class="cls-1" d="M278.65,659.48c-.43.29-.88.62-1.31.94-.45.32-.89.63-1.35.97-6.13,4.53-13.43,10.86-20.85,18.29-17.07,17.07-28.37,33.46-25.24,36.59,3.14,3.13,19.52-8.17,36.59-25.24,7.44-7.44,13.78-14.75,18.31-20.88.34-.46.64-.9.96-1.34.31-.43.63-.87.92-1.28,4.57-6.63,6.62-11.52,5.05-13.08-1.57-1.57-6.45.48-13.07,5.04Z"/>
  <path class="cls-1" d="M654.43,654.43c-1.56,1.56.47,6.43,5.01,13.03.3.43.63.89.95,1.33.32.45.62.88.96,1.34,4.53,6.14,10.87,13.45,18.32,20.89,17.07,17.07,33.45,28.37,36.59,25.24,3.14-3.13-8.16-19.52-25.24-36.59-7.44-7.44-14.75-13.78-20.88-18.31-.46-.34-.89-.64-1.34-.96s-.9-.65-1.33-.95c-6.6-4.55-11.47-6.58-13.03-5.02Z"/>
  <path class="cls-1" d="M291.72,291.72c1.56-1.56-.47-6.43-5.02-13.03-.3-.43-.63-.89-.95-1.33-.32-.45-.62-.88-.96-1.34-4.53-6.14-10.87-13.45-18.32-20.89-17.07-17.08-33.46-28.37-36.59-25.24-3.14,3.13,8.17,19.52,25.24,36.59,7.44,7.44,14.75,13.78,20.89,18.31.46.34.89.64,1.34.96.45.32.9.65,1.33.95,6.6,4.55,11.47,6.58,13.03,5.02Z"/>
</svg>